<?xml version="1.0" encoding="iso-8859-1"?>
<!-- Generator: Adobe Illustrator 19.0.0, SVG Export Plug-In . SVG Version: 6.00 Build 0)  -->
<svg version="1.1" id="Capa_1" xmlns="http://www.w3.org/2000/svg" xmlns:xlink="http://www.w3.org/1999/xlink" x="0px" y="0px"
	 viewBox="0 0 213.467 213.467" style="enable-background:new 0 0 213.467 213.467;" xml:space="preserve">
<g>
	<g>
		<path d="M210.17,84.477l-12.452-12.503c-1.329-1.335-3.494-1.338-4.826-0.01c-1.336,1.329-1.34,3.492-0.01,4.826l10.054,10.095
			l-24.088,24.19l-6.936-6.967c-1.328-1.335-3.488-1.338-4.826-0.01c-1.336,1.329-1.34,3.492-0.01,4.826l9.354,9.395
			c0.64,0.643,1.51,1.005,2.418,1.005c0.908,0,1.778-0.362,2.417-1.005l28.906-29.027C211.497,87.962,211.497,85.808,210.17,84.477z
			"/>
	</g>
</g>
<g>
	<g>
		<path d="M141.687,15.705L128.414,2.376c-1.28-1.287-3.557-1.287-4.837,0L94.672,31.405c-1.326,1.331-1.326,3.485,0,4.816
			l9.201,9.238c0.667,0.671,1.541,1.005,2.418,1.005c0.872,0,1.742-0.333,2.408-0.995c1.336-1.329,1.34-3.492,0.01-4.826
			l-6.801-6.83l24.088-24.192l10.854,10.9c1.33,1.338,3.494,1.341,4.826,0.01C143.013,19.202,143.016,17.04,141.687,15.705z"/>
	</g>
</g>
<g>
	<g>
		<path d="M43.414,122.266l-8.677-8.711c-1.28-1.287-3.557-1.287-4.837,0L0.995,142.582c-1.326,1.331-1.326,3.485,0,4.816
			l15.708,15.775c0.667,0.671,1.541,1.005,2.418,1.005c0.872,0,1.741-0.331,2.41-0.997c1.336-1.33,1.34-3.492,0.01-4.826
			l-13.31-13.367l24.088-24.19l6.258,6.284c1.329,1.336,3.494,1.341,4.826,0.01C44.74,125.763,44.743,123.6,43.414,122.266z"/>
	</g>
</g>
<g>
	<g>
		<path d="M99.459,178.553l-7.598-7.632c-1.328-1.335-3.488-1.34-4.826-0.01c-1.336,1.329-1.34,3.49-0.01,4.826l5.2,5.224
			l-24.088,24.19l-12.138-12.191c-1.328-1.335-3.488-1.34-4.826-0.01c-1.336,1.329-1.34,3.492-0.01,4.826l14.556,14.618
			c0.64,0.643,1.51,1.005,2.418,1.005s1.778-0.362,2.417-1.004l28.906-29.027C100.785,182.038,100.785,179.885,99.459,178.553z"/>
	</g>
</g>
<g>
	<g>
		<path d="M206.151,7.284c-4.702-4.721-11.723-7.218-20.301-7.218c-24.66,0-59.237,19.34-90.231,50.466
			C60.096,86.206,11.455,160.454,2.676,192.398c-1.246,4.54,0.635,9.999,4.912,14.252c3.413,3.393,7.588,5.268,11.459,5.268
			c1.027,0,2.033-0.131,2.999-0.403c31.869-8.951,105.684-57.767,141.041-93.274C206.138,75.006,225.054,26.269,206.151,7.284z
			 M158.247,113.425c-34.756,34.9-107.006,82.799-138.051,91.518c-2.169,0.604-5.298-0.652-7.794-3.133
			c-2.459-2.446-3.722-5.501-3.144-7.602c8.55-31.118,56.281-103.791,91.197-138.858c29.312-29.437,62.831-48.457,85.395-48.457
			c6.82,0,12.022,1.751,15.462,5.209C215.277,26.126,201.304,70.187,158.247,113.425z"/>
	</g>
</g>
<g>
	<g>
		<path d="M64.556,131.478c-1.336-1.33-3.497-1.326-4.826,0.01l-11.921,11.974c-1.329,1.336-1.326,3.497,0.01,4.826
			c0.666,0.664,1.536,0.995,2.408,0.995c0.877,0,1.753-0.336,2.418-1.005l11.921-11.974
			C65.896,134.969,65.892,132.808,64.556,131.478z"/>
	</g>
</g>
<g>
	<g>
		<path d="M73.074,140.031c-1.333-1.33-3.497-1.33-4.826,0.01l-11.923,11.972c-1.33,1.335-1.326,3.497,0.01,4.826
			c0.666,0.664,1.536,0.995,2.408,0.995c0.874,0,1.751-0.334,2.418-1.005l11.923-11.972C74.414,143.522,74.41,141.36,73.074,140.031
			z"/>
	</g>
</g>
<g>
	<g>
		<path d="M81.59,148.583c-1.338-1.33-3.499-1.326-4.826,0.01l-11.923,11.974c-1.329,1.335-1.326,3.497,0.01,4.826
			c0.666,0.664,1.536,0.995,2.408,0.995c0.877,0,1.751-0.335,2.418-1.005L81.6,153.409C82.93,152.074,82.927,149.912,81.59,148.583z
			"/>
	</g>
</g>
<g>
	<g>
		<path d="M156.533,39.114c-1.336-1.33-3.497-1.326-4.826,0.01l-11.923,11.974c-1.33,1.335-1.326,3.497,0.01,4.826
			c0.666,0.664,1.536,0.995,2.408,0.995c0.877,0,1.751-0.334,2.418-1.005l11.923-11.974
			C157.873,42.605,157.87,40.443,156.533,39.114z"/>
	</g>
</g>
<g>
	<g>
		<path d="M165.048,47.666c-1.338-1.331-3.499-1.324-4.826,0.01L148.3,59.65c-1.329,1.336-1.326,3.497,0.01,4.826
			c0.666,0.664,1.536,0.995,2.408,0.995c0.877,0,1.753-0.334,2.418-1.005l11.921-11.974
			C166.388,51.156,166.384,48.995,165.048,47.666z"/>
	</g>
</g>
<g>
	<g>
		<path d="M173.564,56.22c-1.336-1.329-3.497-1.326-4.826,0.01l-11.921,11.972c-1.33,1.335-1.326,3.497,0.01,4.826
			c0.666,0.664,1.536,0.995,2.408,0.995c0.877,0,1.753-0.335,2.418-1.005l11.921-11.972
			C174.904,59.711,174.901,57.549,173.564,56.22z"/>
	</g>
</g>
<g>
</g>
<g>
</g>
<g>
</g>
<g>
</g>
<g>
</g>
<g>
</g>
<g>
</g>
<g>
</g>
<g>
</g>
<g>
</g>
<g>
</g>
<g>
</g>
<g>
</g>
<g>
</g>
<g>
</g>
</svg>
